<?xml version="1.0" encoding="UTF-8"?>
<svg width="486px" height="93px" viewBox="0 0 486 93" version="1.1" xmlns="http://www.w3.org/2000/svg" xmlns:xlink="http://www.w3.org/1999/xlink">
    <!-- Generator: Sketch 51.2 (57519) - http://www.bohemiancoding.com/sketch -->
    <title>Artboard 1</title>
    <desc>Created with Sketch.</desc>
    <defs>
        <polygon id="path-1" points="0.756678899 0.7867 325.317095 0.7867 325.317095 53.9887 0.756678899 53.9887"></polygon>
    </defs>
    <g id="Artboard-1" stroke="none" stroke-width="1" fill="none" fill-rule="evenodd">
        <g id="Group-3" transform="translate(160.000000, 23.000000)">
            <mask id="mask-2" fill="white">
                <use xlink:href="#path-1"></use>
            </mask>
            <g id="Clip-2"></g>
            <path d="M40.1299021,49.5507 C43.8634495,46.5917 46.2162324,42.6027 47.1872538,37.5847 L46.9629419,37.4717 C45.5064098,39.9437 43.4905933,41.8727 40.9144954,43.2587 C38.3374006,44.6447 35.2947339,45.3377 31.7845015,45.3377 C26.2963364,45.3377 22.3753639,43.6237 20.023578,40.1967 C17.6707951,36.7697 16.4944037,31.7607 16.4944037,25.1687 L16.4944037,24.8317 L47.4673945,24.8317 C47.579052,24.0827 47.6348807,23.1837 47.6348807,22.1347 C47.6348807,17.9777 46.7854862,14.2977 45.0866972,11.0957 C43.3879083,7.8937 40.8855841,5.3847 37.5817187,3.5677 C34.2768563,1.7517 30.3100245,0.8427 25.6802263,0.8427 C20.5270336,0.8427 16.0746911,1.9857 12.3222018,4.2697 C8.56971254,6.5547 5.70350459,9.7097 3.72457492,13.7367 C1.74564526,17.7627 0.756678899,22.3597 0.756678899,27.5287 C0.756678899,32.6597 1.70875841,37.2197 3.61291743,41.2077 C5.51707645,45.1967 8.33642813,48.3237 12.0699755,50.5897 C15.8035229,52.8557 20.3216636,53.9887 25.6243976,53.9887 C31.5611865,53.9887 36.3963547,52.5097 40.1299021,49.5507 M18.3427339,5.6467 C19.5749541,2.8937 21.7781957,1.5177 24.9514618,1.5177 C27.7897554,1.5177 29.7308012,2.5847 30.7765933,4.7197 C31.8223853,6.8547 32.3447829,10.2437 32.3447829,14.8877 L32.3447829,23.0447 L16.4944037,23.0447 L16.4944037,17.9777 C16.4944037,12.5097 17.1105138,8.3997 18.3427339,5.6467 M71.1308073,11.3487 L70.7948379,2.0227 L50.9128257,2.0227 L50.9128257,2.1347 C52.2567034,3.4837 53.2366972,4.5787 53.8528073,5.4217 C54.4689174,6.2647 54.8985994,7.1167 55.1408563,7.9777 C55.3841101,8.8397 55.5047401,9.9257 55.5047401,11.2367 L55.5047401,44.1577 C55.5047401,45.8807 55.2255963,47.2937 54.665315,48.3987 C54.1050336,49.5037 52.9286422,50.9547 51.1361407,52.7527 L51.1361407,52.8657 L75.8363731,52.8657 L75.8363731,52.7527 C74.4546116,51.4797 73.4467034,50.4397 72.8116514,49.6347 C72.1765994,48.8297 71.737945,48.0247 71.4956881,47.2197 C71.2524343,46.4137 71.1308073,45.3937 71.1308073,44.1577 L71.1308073,11.9107 C71.616318,11.4987 72.1576575,11.1987 72.7558226,11.0117 C73.3529908,10.8247 74.0807584,10.7307 74.9401223,10.7307 C76.4704281,10.7307 78.3097859,11.0957 80.4562018,11.8257 C82.6036147,12.5567 85.9363914,13.9707 90.4535352,16.0677 L90.5661896,16.0677 L90.5661896,2.8097 C89.8194801,2.2097 88.9322018,1.7327 87.9053517,1.3767 C86.8785015,1.0207 85.805792,0.8427 84.6852294,0.8427 C82.2955596,0.8427 79.9248318,1.6857 77.5720489,3.3707 C75.220263,5.0567 73.0728502,7.7157 71.1308073,11.3487 M115.601394,48.3987 C115.041113,47.2937 114.760972,45.8807 114.760972,44.1577 L114.760972,2.0227 L94.5429908,2.0227 L94.5429908,2.1347 C95.8868685,3.4837 96.8668624,4.5787 97.4829725,5.4217 C98.0990826,6.2647 98.5287645,7.1167 98.7710214,7.9777 C99.0142752,8.8397 99.1349052,9.9257 99.1349052,11.2367 L99.1349052,44.1577 C99.1349052,45.8807 98.8547645,47.2937 98.2954801,48.3987 C97.7351988,49.5037 96.5588073,50.9547 94.7663058,52.7527 L94.7663058,52.8657 L119.129572,52.8657 L119.129572,52.7527 C117.338067,50.9547 116.161676,49.5037 115.601394,48.3987 M161.482654,49.5507 C165.217199,46.5917 167.568985,42.6027 168.540006,37.5847 L168.315694,37.4717 C166.859162,39.9437 164.843346,41.8727 162.267248,43.2587 C159.69115,44.6447 156.647486,45.3377 153.138251,45.3377 C147.649089,45.3377 143.728116,43.6237 141.37633,40.1967 C139.023547,36.7697 137.848153,31.7607 137.848153,25.1687 L137.848153,24.8317 L168.820147,24.8317 C168.931804,24.0827 168.987633,23.1837 168.987633,22.1347 C168.987633,17.9777 168.138239,14.2977 166.43945,11.0957 C164.740661,7.8937 162.239333,5.3847 158.934471,3.5677 C155.630606,1.7517 151.662777,0.8427 147.032979,0.8427 C141.879786,0.8427 137.427443,1.9857 133.674954,4.2697 C129.922465,6.5547 127.057254,9.7097 125.078324,13.7367 C123.099394,17.7627 122.109431,22.3597 122.109431,27.5287 C122.109431,32.6597 123.061511,37.2197 124.96567,41.2077 C126.869829,45.1967 129.68918,48.3237 133.422728,50.5897 C137.157272,52.8557 141.674416,53.9887 146.97715,53.9887 C152.913939,53.9887 157.749107,52.5097 161.482654,49.5507 M139.695486,5.6467 C140.927706,2.8937 143.130948,1.5177 146.305211,1.5177 C149.142508,1.5177 151.08455,2.5847 152.129346,4.7197 C153.175138,6.8547 153.697535,10.2437 153.697535,14.8877 L153.697535,23.0447 L137.848153,23.0447 L137.848153,17.9777 C137.848153,12.5097 138.463266,8.3997 139.695486,5.6467 M224.827346,48.3987 C224.268061,47.2937 223.98792,45.8807 223.98792,44.1577 L223.98792,16.4047 C223.98792,11.4607 222.661988,7.6317 220.011119,4.9157 C217.360251,2.2007 213.551933,0.8427 208.585168,0.8427 C205.075933,0.8427 202.060183,1.6107 199.539914,3.1467 C197.019645,4.6817 195.031743,6.7047 193.575211,9.2137 L193.29507,2.0227 L173.413058,2.0227 L173.413058,2.1347 C174.756936,3.4837 175.73693,4.5787 176.35304,5.4217 C176.96915,6.2647 177.398832,7.1167 177.641089,7.9777 C177.884343,8.8397 178.004972,9.9257 178.004972,11.2367 L178.004972,44.1577 C178.004972,45.8807 177.724832,47.2937 177.165547,48.3987 C176.605266,49.5037 175.428875,50.9547 173.636373,52.7527 L173.636373,52.8657 L197.66367,52.8657 L197.66367,52.7527 C196.020709,50.9547 194.938031,49.5037 194.415633,48.3987 C193.893235,47.2937 193.63104,45.8807 193.63104,44.1577 L193.63104,10.0007 C195.834281,7.9407 198.35455,6.9107 201.192844,6.9107 C203.694171,6.9107 205.504618,7.6317 206.62518,9.0737 C207.745743,10.5157 208.305028,12.4907 208.305028,15.0007 L208.305028,44.1577 C208.305028,45.9177 208.053798,47.3407 207.549346,48.4267 C207.044893,49.5137 205.972183,50.9547 204.329223,52.7527 L204.329223,52.8657 L228.35652,52.8657 L228.35652,52.7527 C226.564018,50.9547 225.387627,49.5037 224.827346,48.3987 M273.62167,11.8547 L273.733327,11.8547 L273.510012,2.6967 C270.896031,2.1347 268.067706,1.6767 265.024043,1.3207 C261.981376,0.9647 259.358422,0.7867 257.15518,0.7867 C251.554361,0.7867 246.812905,1.9107 242.929817,4.1577 C239.045731,6.4047 236.124691,9.5417 234.163706,13.5677 C232.203719,17.5937 231.223725,22.2477 231.223725,27.5287 C231.223725,32.6217 232.101034,37.1627 233.855651,41.1517 C235.611266,45.1407 238.23422,48.2777 241.725511,50.5617 C245.216801,52.8467 249.463774,53.9887 254.467425,53.9887 C258.126202,53.9887 261.384208,53.3337 264.240446,52.0227 C267.096685,50.7117 269.420557,48.8487 271.213058,46.4327 C273.00556,44.0167 274.163009,41.1797 274.685407,37.9217 L274.573749,37.7527 C271.84811,42.8087 267.311028,45.3377 260.963498,45.3377 C257.454263,45.3377 254.681768,44.5227 252.647009,42.8937 C250.612251,41.2647 249.174661,38.8107 248.334239,35.5337 C247.493817,32.2567 247.074104,27.9587 247.074104,22.6407 C247.074104,17.5097 247.37219,13.4177 247.970355,10.3657 C248.567523,7.3127 249.519602,5.0937 250.826593,3.7087 C252.133584,2.3227 253.851315,1.6297 255.978789,1.6297 C257.136239,1.6297 258.340544,1.8917 259.591706,2.4157 C260.842869,2.9407 262.466887,3.8857 264.464758,5.2527 C266.461633,6.6197 269.514269,8.8207 273.62167,11.8547 M317.812116,49.5507 C321.545664,46.5917 323.89745,42.6027 324.868471,37.5847 L324.644159,37.4717 C323.188624,39.9437 321.17181,41.8727 318.595713,43.2587 C316.019615,44.6447 312.975951,45.3377 309.466716,45.3377 C303.977554,45.3377 300.057578,43.6237 297.704795,40.1967 C295.353009,36.7697 294.176618,31.7607 294.176618,25.1687 L294.176618,24.8317 L325.148612,24.8317 C325.260269,24.0827 325.317095,23.1837 325.317095,22.1347 C325.317095,17.9777 324.4677,14.2977 322.767914,11.0957 C321.069125,7.8937 318.567798,5.3847 315.262936,3.5677 C311.95907,1.7517 307.991242,0.8427 303.361443,0.8427 C298.209248,0.8427 293.755908,1.9857 290.003419,4.2697 C286.25093,6.5547 283.385719,9.7097 281.406789,13.7367 C279.427859,17.7627 278.437896,22.3597 278.437896,27.5287 C278.437896,32.6597 279.389976,37.2197 281.295131,41.2077 C283.199291,45.1967 286.017645,48.3237 289.75219,50.5897 C293.485737,52.8557 298.003878,53.9887 303.305615,53.9887 C309.242404,53.9887 314.077572,52.5097 317.812116,49.5507 M296.024948,5.6467 C297.257168,2.8937 299.459413,1.5177 302.633676,1.5177 C305.470972,1.5177 307.413015,2.5847 308.458807,4.7197 C309.503602,6.8547 310.026997,10.2437 310.026997,14.8877 L310.026997,23.0447 L294.176618,23.0447 L294.176618,17.9777 C294.176618,12.5097 294.792728,8.3997 296.024948,5.6467" id="Fill-1" fill="#393834" mask="url(#mask-2)"></path>
        </g>
        <path d="M39.2806175,72.5974233 C43.0053837,69.6451408 45.3526328,65.6651966 46.3213704,60.6585884 L46.097586,60.545845 C44.6444797,63.012233 42.6334043,64.9368538 40.0633655,66.3197073 C37.492332,67.7025608 34.4568217,68.3939876 30.9548453,68.3939876 C25.4795883,68.3939876 21.5678379,66.6838787 19.2215834,63.2646587 C16.8743343,59.8454386 15.7007097,54.8478101 15.7007097,48.2707752 L15.7007097,47.9345402 L46.6008521,47.9345402 C46.712247,47.1872406 46.7679445,46.2902815 46.7679445,45.243663 C46.7679445,41.0961002 45.9205477,37.4244545 44.2257543,34.2297237 C42.5309608,31.0349928 40.0345221,28.5316888 36.7384274,26.7188137 C33.441338,24.9069364 29.4838362,24 24.8649273,24 C19.7238549,24 15.2819843,25.1404052 11.5383209,27.41922 C7.79465741,29.6990326 4.93519077,32.8468702 2.96091554,36.8647281 C0.986640315,40.8815883 0,45.4681522 0,50.6254175 C0,55.7447691 0.949840223,60.2944171 2.84952067,64.2733635 C4.74920111,68.2533077 7.56192169,71.3732088 11.2866878,73.6340645 C15.0114539,75.8949203 19.5189679,77.0253481 24.8092299,77.0253481 C30.7320555,77.0253481 35.5558514,75.5497057 39.2806175,72.5974233 Z M17.5446927,28.793094 C18.7740147,26.0463438 20.9720743,24.6734676 24.1378768,24.6734676 C26.9694947,24.6734676 28.9059753,25.7380453 29.9493076,27.8681984 C30.99264,29.9983516 31.5138089,33.3796579 31.5138089,38.0131151 L31.5138089,46.1515971 L15.7007097,46.1515971 L15.7007097,41.0961002 C15.7007097,35.6405136 16.3153707,31.5398441 17.5446927,28.793094 Z M74.5937873,75.9048976 L99.6824989,75.9048976 L99.6824989,75.7921541 C97.8574133,73.7747444 96.3396581,71.9339329 95.1282389,70.2717151 C93.9178142,68.6084995 92.5492486,66.5441965 91.0215475,64.0778085 L80.1814338,46.2533655 L86.4404333,37.8454965 C88.2277242,35.5287679 89.8857176,33.5662334 91.4124241,31.9598884 C92.9401253,30.3525457 95.3430718,28.1296037 98.6212638,25.2890669 L98.6212638,25.1773212 L82.9195596,25.1773212 L82.9195596,25.2890669 C84.7824399,26.9712394 86.0674593,28.3441156 86.7756125,29.409691 C87.482771,30.4742687 87.8368476,31.6046966 87.8368476,32.8009746 C87.8368476,33.5103605 87.4041978,33.7867316 87.0690186,34.4781584 C86.7338394,35.1695851 86.0982919,35.768223 85.2419438,36.9275851 L79.430513,44.77473 L72.582712,34.0331709 C72.0237484,33.1372095 71.6328718,32.3519962 71.4090874,31.6795263 C71.1862977,31.0070564 71.0739082,30.3345865 71.0739082,29.6611189 C71.0739082,28.0178579 71.8566561,26.5601747 73.4211573,25.2890669 L73.4211573,25.1773212 L48.3324457,25.1773212 L48.3324457,25.2890669 C50.1575313,27.3443903 51.6752865,29.2041587 52.8867058,30.8663765 C54.0971304,32.5295921 55.4477933,34.5759359 56.9376997,37.0044103 L67.1064604,53.7084026 L60.0110047,63.1808494 C58.2973139,65.4596642 56.6771153,67.4122215 55.1494142,69.038521 C53.621713,70.6638229 51.1819664,72.9147013 47.8291796,75.7921541 L47.8291796,75.9048976 L63.5308838,75.9048976 L63.5308838,75.7921541 C61.6680035,74.1109794 60.382984,72.7281259 59.6758255,71.6445913 C58.9676724,70.5610567 58.9209263,70.2577469 58.9209263,69.0993826 C58.9209263,68.3889989 59.0880186,67.6975722 59.4231979,67.0251023 C59.7583771,66.3526324 60.3551353,65.4187573 61.2114834,64.2224793 L67.9727545,55.3107567 L75.4322326,67.0480501 C75.9911962,67.9829229 76.3820729,68.7761181 76.6058572,69.4306289 C76.8296416,70.0841419 76.9410364,70.7476322 76.9410364,71.4201021 C76.9410364,72.9895311 76.1582885,74.4472143 74.5937873,75.7921541 L74.5937873,75.9048976 Z M145.807934,27.1109215 C142.883818,25.037639 139.52208,24 135.722719,24 C130.246468,24 125.571861,26.3356855 121.697906,31.0070564 L121.362726,25.1773212 L101.526482,25.1773212 L101.526482,25.2890669 C102.867199,26.5970907 103.854834,27.6806252 104.488392,28.5406683 C105.120956,29.3997137 105.549627,30.2597568 105.773412,31.1188021 C105.996201,31.9788452 106.108591,33.0623798 106.108591,34.3704036 L106.108591,84.3127666 C106.108591,85.5449629 105.996201,86.563645 105.773412,87.3668175 C105.549627,88.1709878 105.139853,88.9831398 104.54409,89.8052692 C103.947331,90.6273985 103.016388,91.6550602 101.750266,92.8882543 L101.750266,93 L126.111927,93 L126.111927,92.8882543 C124.323642,91.0943361 123.150017,89.6556097 122.592048,88.5720751 C122.033085,87.4885406 121.753603,86.0687711 121.753603,84.3127666 L121.753603,75.511792 C124.323642,76.4835808 127.080665,76.9694753 130.023678,76.9694753 C134.977766,76.9694753 139.345042,75.8200905 143.1265,73.5223188 C146.906963,71.224547 149.831079,67.963966 151.898846,63.7415735 C153.965619,59.5181833 155,54.604364 155,48.9991179 C155,44.0294258 154.199349,39.6573738 152.597053,35.882962 C150.995752,32.1095478 148.732049,29.1852018 145.807934,27.1109215 Z M133.599254,73.167127 C132.109348,74.5120667 130.060478,75.1855344 127.452644,75.1855344 C125.516164,75.1855344 123.616483,74.8303426 121.753603,74.1199589 L121.753603,32.5126307 C123.691078,30.6438828 126.018435,29.7100077 128.737664,29.7100077 C131.084913,29.7100077 132.928896,30.4852437 134.269613,32.0357158 C135.61033,33.5871857 136.561165,35.9977009 137.119133,39.2672614 C137.678097,42.536822 137.957579,46.1406221 137.957579,51.6341224 C137.957579,58.0984138 137.603502,62.5083795 136.896344,65.9645155 C136.188191,69.4216493 135.089161,71.8221872 133.599254,73.167127 Z" id="Fill-4" fill="#DF5B42"></path>
        <path d="M267,17 C271.970847,17 276,13.1947674 276,8.5 C276,3.80523256 271.970847,0 267,0 C262.029153,0 258,3.80523256 258,8.5 C258,13.1947674 262.029153,17 267,17" id="Fill-6" fill="#DF5B42"></path>
    </g>
</svg>